<svg xmlns="http://www.w3.org/2000/svg" viewBox="0 0 12 12"><path fill-rule="evenodd" clip-rule="evenodd" fill="#009AD8" d="M11.7 10.8c-.4.4-.8 1-2.2 1.2h-.3c-.7 0-3.2-.2-6-3.1C.6 6.3-.3 4.4.1 2.5c.3-1.4 1-2 1.2-2.1.2-.3.5-.4.9-.4.3 0 .6.1.8.4l1.7 1.7c.5.5.5 1.3 0 1.8l-.6.7c.3.5.7 1.2 1.4 2 .7.7 1.4 1.1 1.9 1.4l.7-.7c.3-.3.6-.4.9-.4.3 0 .6.1.9.4L11.6 9c.5.5.5 1.2.1 1.8zm-.6-1.3L9.4 7.8c-.1-.1-.2-.1-.4-.1-.1 0-.3.1-.4.2l-.7.6c-.1.2-.3.2-.4.2-.1 0-.3-.1-.3-.1-.6-.3-1.4-.7-2.2-1.5-.9-.9-1.3-1.7-1.6-2.2-.1-.2-.1-.5.1-.7l.8-.8c.2-.2.2-.6 0-.8L2.5.9C2.4.8 2.3.7 2.2.7c-.2 0-.3.1-.4.2 0 0-.7.5-.9 1.7-.4 1.7.4 3.3 2.8 5.7 2.7 2.7 4.9 2.9 5.5 2.9h.2c1-.1 1.4-.5 1.7-.9.2-.2.2-.5 0-.8z"/></svg>