<svg xmlns="http://www.w3.org/2000/svg" viewBox="0 0 361 287"><path fill-rule="evenodd" clip-rule="evenodd" fill="#14A2DB" d="M308.4 1.2c-1.4-1.2-3.3-1.5-5-.7L2.7 140.2c-1.6.8-2.7 2.4-2.7 4.2 0 1.8 1 3.4 2.6 4.2l85.1 41.8c1.6.8 3.4.6 4.8-.4l82.7-61.9-65 66.8c-.9 1-1.4 2.3-1.3 3.6l6.5 84.3c.1 1.9 1.4 3.5 3.2 4 .5.2 1 .2 1.4.2 1.3 0 2.6-.6 3.5-1.6l45.2-52.4 55.8 26.7c1.2.6 2.6.6 3.8.1 1.2-.5 2.2-1.6 2.6-2.9L309.8 6c.5-1.7 0-3.6-1.4-4.8zm52.3 122.1c-.3-.3-.7-.3-1.1-.2l-65 30.2c-.3.2-.6.5-.6.9s.2.7.6.9l18.4 9c.3.2.7.1 1-.1l17.9-13.4-14 14.4c-.2.2-.3.5-.3.8L319 184c0 .4.3.7.7.9h.3c.3 0 .6-.1.8-.3l9.8-11.3 12.1 5.8c.3.1.6.1.8 0 .3-.1.5-.3.6-.6l17-54.2c0-.4-.1-.8-.4-1z"/></svg>