<svg xmlns="http://www.w3.org/2000/svg" viewBox="0 0 50 50"><linearGradient id="a" gradientUnits="userSpaceOnUse" y1="25.006" x2="50.011" y2="25.006"><stop offset="0" stop-color="#009dff"/><stop offset="1" stop-color="#46e8ff"/></linearGradient><path fill="url(#a)" d="M19.7 6C12.2 6 6 12.2 6 19.7c0 7.5 6.1 13.6 13.6 13.6s13.6-6.1 13.6-13.6c.1-7.5-6-13.7-13.5-13.7zm0 24.2c-5.8 0-10.6-4.7-10.6-10.6C9.1 13.8 13.8 9 19.7 9c5.8 0 10.6 4.7 10.6 10.6-.1 5.9-4.8 10.6-10.6 10.6zM25 14.3c-1.4-1.4-3.3-2.2-5.3-2.2s-3.9.8-5.3 2.2l2.1 2.1c1.8-1.8 4.6-1.8 6.4 0 1.8 1.8 1.8 4.6 0 6.4L25 25c1.4-1.4 2.2-3.3 2.2-5.3 0-2.1-.8-4-2.2-5.4zM36.4 30c1.9-3.1 2.9-6.6 2.9-10.3C39.3 8.8 30.5 0 19.7 0 8.8 0 0 8.8 0 19.7c0 10.8 8.8 19.7 19.7 19.7 3.7 0 7.2-1 10.3-2.9L43.6 50l6.4-6.4L36.4 30zm-6.1 2.5l-1 .7c-2.8 2-6.2 3.1-9.6 3.1C10.5 36.3 3 28.8 3 19.7 3 10.5 10.5 3 19.7 3s16.6 7.5 16.6 16.6c0 3.5-1.1 6.8-3.1 9.6l-.7 1 13.3 13.3-2.1 2.1-13.4-13.1z"/></svg>