<svg xmlns="http://www.w3.org/2000/svg" viewBox="139.5 119.5 31 40"><linearGradient id="a" gradientUnits="userSpaceOnUse" x1="139.514" y1="139.5" x2="170.486" y2="139.5"><stop offset="0" stop-color="#009dff"/><stop offset="1" stop-color="#46e8ff"/></linearGradient><path fill="url(#a)" d="M155 135.3c4.4 0 7.9-3.5 7.9-7.9s-3.6-7.9-7.9-7.9c-4.4 0-7.9 3.5-7.9 7.9 0 4.3 3.5 7.9 7.9 7.9zm10.7 3.8c-1-.3-4.2-.7-4.2-.7-.4-.1-.7.1-.9.4l-4.8 13c-.3.8-1.3.8-1.6 0l-4.8-13c-.1-.3-.4-.5-.7-.5-.1 0-3.3.5-4.4.7-3 .7-4.8 3.6-4.8 6.6v10.8c0 1.6 1.3 2.9 3 2.9h25.1c1.6 0 3-1.3 3-2.9v-10.9c-.1-2.8-2.1-5.5-4.9-6.4zm-8.9-.9c-.2-.2-.5-.3-.8-.3h-2.1c-.3 0-.6.1-.8.3-.3.3-.3.8-.1 1.1l1.1 1.7-.5 4.4 1 2.7c.1.3.5.3.6 0l1-2.7-.5-4.4 1.1-1.7c.3-.4.3-.8 0-1.1z"/></svg>