<svg xmlns="http://www.w3.org/2000/svg" viewBox="131.6 119 45.9 40"><linearGradient id="a" gradientUnits="userSpaceOnUse" x1="131.602" y1="138.953" x2="177.456" y2="138.953"><stop offset="0" stop-color="#009dff"/><stop offset="1" stop-color="#46e8ff"/></linearGradient><path fill="url(#a)" d="M162.4 135.4c.7.3 2 .5 2 .6 0 0 .1 0 .1.1v1c0 .3.2.5.5.5h.5c.3 0 .5-.2.5-.5v-1c0-.1.1-.1.1-.1 1.5-.3 2.4-1.4 2.4-2.7 0-1.4-.8-2.3-2.6-3-1.4-.5-1.8-.9-1.8-1.5 0-.5.4-1 1.4-1 .9 0 1.6.4 1.6.4.1 0 .2.1.2.1.2 0 .4-.1.4-.3l.2-.6c.1-.2 0-.4-.2-.5-.6-.2-1.6-.4-1.7-.4 0 0-.1 0-.1-.1v-.9c0-.3-.2-.5-.5-.5h-.4c-.3 0-.5.2-.5.5v1c0 .1-.1.1-.1.1-1.4.3-2.2 1.3-2.2 2.6 0 1.6 1.3 2.3 2.7 2.8 1.1.4 1.6.9 1.6 1.6 0 .7-.7 1.2-1.6 1.2-.8 0-1.9-.5-1.9-.5h-.2c-.2 0-.4.1-.5.3l-.2.6c0-.1.2.1.3.2zm2.9 7.8c6.7 0 12.1-5.4 12.1-12.1 0-6.7-5.4-12.1-12.1-12.1-6.7 0-12.1 5.4-12.1 12.1 0 6.7 5.4 12.1 12.1 12.1zm0-21.4c5.1 0 9.3 4.2 9.3 9.3 0 5.1-4.2 9.3-9.3 9.3-5.1 0-9.3-4.2-9.3-9.3 0-5.2 4.2-9.3 9.3-9.3zM175 149c-2.6 1.4-6.1 2.7-9.7 3.3-3.1.5-9.1-.7-9.1-2.1 0-.5 5.2 1.3 8.3.5 2.4-.6 2.1-2.9.8-3.2-1.3-.3-8.9-3.1-12.2-3.2-1.5 0-5.3.5-7.2.8-.6.1-1 .1-1.1.7-.2 2.8-.5 8.5-.7 11.5 0 .1.1.9.8.3.8-.7 1.8-1.4 2.8-1.2 1.6.4 15 2.8 16.9 2.4 2.7-.6 10.2-5.1 11.6-6.5 2.4-2 .7-4.3-1.2-3.3zm-33.8-3.9l-7.1-.3c-.5 0-1.1.4-1.2.9l-1.3 11.7c-.1.5.2 1 .7 1h7.8c.5 0 1-.4 1.1-1l.9-11.2c.1-.6-.3-1.1-.9-1.1zm-4.1 11.6c-1.1 0-2-.9-2-2s.9-2 2-2 2 .9 2 2c-.1 1.2-1 2-2 2z"/></svg>