<svg xmlns="http://www.w3.org/2000/svg" viewBox="-0.6 26.8 310.6 221.4"><linearGradient id="a" gradientUnits="userSpaceOnUse" x1="103.441" y1="162.539" x2="159.455" y2="162.539" gradientTransform="matrix(5.5357 0 0 -5.5357 -573.768 1037.268)"><stop offset="0" stop-color="#009dff"/><stop offset="1" stop-color="#46e8ff"/></linearGradient><path fill="url(#a)" d="M295.6 26.8H104.1c-7.2 0-13.3 6.1-13.3 13.3v16.6c7.2 2.2 12.7 6.6 17.2 11.6 2.8 3.3 4.4 6.6 6.1 10.5V51.7H284v98.5H114l-3.3 1.1 8.3.6c7.7.6 18.8 3.3 24.4 8.3 6.1 5.5 9.4 16.6 9.4 24.9v8.3c0 7.2-3.3 13.3-8.9 17.2l-3.9 23.8c-1.1 6.6 3.3 12.7 10 13.8h2.2c5.5 0 10.5-3.9 11.6-10l10.5-60.9H227l10.5 60.9c1.1 6.1 6.1 10 11.6 10h2.2c6.6-1.1 11.1-7.2 10-13.8l-10-57h45.4c7.2 0 13.3-6.1 13.3-13.3v-124c-1.1-7.2-7.2-13.3-14.4-13.3zM143.4 188.4c0-7.2-2.8-15.5-6.6-18.8-3.9-3.3-12.2-6.1-19.4-6.6l-26.6-1.7-14.4 24.4c-1.7 2.2-3.3 3.9-5 3.9-1.7 0-3.9-1.1-5-3.9l-13.8-24.4-27.1 1.7c-7.2.6-16.1 3.3-19.4 6.6-3.9 3.3-6.6 11.6-6.6 18.8v8.3c0 7.7 6.1 13.8 13.8 13.8h116.8c7.7 0 13.8-6.1 13.8-13.8v-8.3h-.5zm-74.8-6.6c1.1 2.8 3.3 2.8 4.4 0l4.4-8.3-5-5.5 3.9-3.9-5-2.8-5 2.8 3.9 3.9-5 5 3.4 8.8zm-33.7-55.4v14.4c0 8.3 6.6 14.9 14.9 14.9h41.5c8.3 0 14.9-6.6 14.9-14.9v-29.3c.6 0 1.1-.6 1.1-.6s9.4-46.5-37.6-46.5c-49.8 0-37.1 62-37.1 62 .6.6 1.2 0 2.3 0zm21.6-23.2h2.8c13.3 15.5 32.1 12.7 42.1 10v27.7c0 5.5-4.4 10-10 10H49.8c-5.5 0-10-4.4-10-10v-16.6c10-5.6 15-16.1 16.7-21.1zm78.6 17.7l21.6-25.5 19.9 24.9c1.1 1.1 2.2 1.7 3.9 1.7s2.8-.6 3.9-1.7l39.9-40.4 20.5 18.3c2.2 1.7 5.5 1.7 7.2-.6 1.7-2.2 1.7-5.5-.6-7.2l-23.8-21.6c-2.2-1.7-5-1.7-7.2 0L181 108.2l-20.5-25.5c-1.1-1.1-2.2-1.7-3.9-1.7-1.7 0-2.8.6-3.9 1.7l-25.5 29.9c-1.7 2.2-1.7 5.5.6 7.2 1.1 1.1 2.2 1.1 3.3 1.1 1.8 2.2 2.9 1.7 4 0z"/></svg>