<svg xmlns="http://www.w3.org/2000/svg" viewBox="135 119.3 39 40"><linearGradient id="a" gradientUnits="userSpaceOnUse" x1="134.955" y1="139.285" x2="173.938" y2="139.285"><stop offset="0" stop-color="#009dff"/><stop offset="1" stop-color="#46e8ff"/></linearGradient><path fill="url(#a)" d="M172.6 140.5s1.7-2.7-.5-4.8c-2.8-2.6-10.3-.9-10.3-.9-.5.1-1.1.2-1.7.4 0 0-2.6 1.2 0-6.8s-1.7-9.2-3.6-9.2c-1.8 0-1.2 3.9-1.2 3.9s-3.9 10.9-7.7 13.8c-.8.9-1.3 1.8-1.6 2.6-.1.2-.1.4-.2.5-.3.5-.8 1.3-1.9 2l3.7 16.4s5.8.8 11.6.6c2.3.2 4.8.2 6.7-.2 6.7-1.4 5-6.1 5-6.1 3.6-2.7 1.5-6.1 1.5-6.1 3.3-3.2.2-6.1.2-6.1zm-30.5 3.3c-.2-.8-.9-1.4-1.7-1.4H135v16.4h8.8c.8 0 1.3-.6 1.1-1.4l-2.8-13.6z"/></svg>