<svg xmlns="http://www.w3.org/2000/svg" viewBox="0 0 40 40"><path fill-rule="evenodd" clip-rule="evenodd" fill="#4D4D4D" d="M20.5.5c-11 0-20 9-20 20s9 20 20 20 20-9 20-20-9-20-20-20z"/><path fill-rule="evenodd" clip-rule="evenodd" fill="#252525" d="M31.3 19.2c.4-.5.7-.9.9-1.2 1.7-2.2 2.4-3.7 2.2-4.3l-.1-.1c-.1-.1-.2-.2-.5-.2-.2-.1-.6-.1-.9 0H28l-.2.2c-.1.1-.1.2-.1.3-.5 1.2-1 2.3-1.6 3.3-.4.6-.7 1.1-1 1.6-.3.4-.6.8-.8 1-.2.2-.4.4-.6.5-.2.1-.3.2-.4.2-.1 0-.2 0-.2-.1-.1-.1-.2-.2-.3-.4-.1-.2-.1-.3-.2-.6 0-.2 0-.4-.1-.6v-4.3c0-.3 0-.5-.1-.7 0-.2-.1-.3-.2-.5s-.2-.3-.3-.4c-.1-.1-.3-.1-.5-.2-.5-.1-1.2-.2-2-.2-1.8 0-3 .1-3.5.4-.2.1-.4.3-.6.4-.2.2-.2.3-.1.4.6.1 1 .3 1.2.6l.1.2c.1.1.1.4.2.7.1.3.1.7.1 1.1v1.8c0 .5-.1.9-.1 1.2 0 .3-.1.5-.2.7-.1.2-.1.3-.2.3l-.1.1c-.1 0-.3.1-.4.1-.1 0-.3-.1-.5-.2s-.4-.3-.6-.6c-.2-.2-.4-.6-.7-1-.3-.4-.5-.9-.8-1.5l-.2-.4c-.1-.3-.3-.7-.6-1.2s-.5-1-.7-1.5c-.1-.2-.2-.4-.4-.5h-.1s-.1-.1-.2-.1-.2-.1-.3-.1h-4c-.4 0-.7.1-.8.3l-.1.1v.2c0 .1 0 .2.1.4.6 1.4 1.2 2.7 1.9 4 .7 1.3 1.3 2.3 1.8 3.1.5.8 1 1.5 1.5 2.2.5.7.9 1.1 1 1.3l.4.4.4.4c.2.2.6.5 1 .8.5.3 1 .6 1.5 1 .5.3 1.2.6 1.9.8.7.2 1.4.3 2.1.2h1.7c.3 0 .6-.1.8-.3l.1-.1c0-.1.1-.1.1-.3 0-.1.1-.3.1-.4 0-.4 0-.8.1-1.1.1-.3.2-.6.2-.8.1-.2.2-.3.3-.4l.2-.2s.1 0 .1-.1c.2-.1.5 0 .8.2.3.2.6.5.9.8.3.3.6.7 1 1.1.4.4.7.7 1 .9l.3.2c.2.1.4.2.8.3.3.1.6.1.8.1l3.7-.1c.4 0 .7-.1.9-.2.2-.1.3-.3.4-.4v-.5c0-.2-.1-.3-.1-.4 0-.1-.1-.1-.1-.2-.5-.9-1.4-2-2.8-3.2l-1.2-1.2c-.3-.4-.4-.8-.2-1.2.8-.3 1.3-.9 2-1.9z"/></svg>