<svg xmlns="http://www.w3.org/2000/svg" viewBox="0 0 40 40"><path fill-rule="evenodd" clip-rule="evenodd" fill="#4D4D4D" d="M20.5 40.5c-11 0-20-9-20-20s9-20 20-20 20 9 20 20-9 20-20 20zm-2.4-30c-1.5 0-3.5.2-5.1 1.6-1.2 1.1-1.8 2.5-1.8 3.8 0 2.2 1.7 4.5 4.7 4.5.3 0 .6 0 .9-.1-.1.3-.3.6-.3 1.1 0 .9.5 1.4.9 1.9-1.3.1-3.7.2-5.4 1.3-1.7 1-2.2 2.4-2.2 3.5 0 2.1 2 4.1 6.1 4.1 4.9 0 7.5-2.7 7.5-5.4 0-2-1.1-2.9-2.4-4l-1-.8c-.3-.3-.7-.6-.7-1.2s.4-1 .8-1.4c1.2-.9 2.4-1.9 2.4-4 0-2.2-1.4-3.3-2-3.8h1.8l1.8-1h-6zm13.2 9.2h-3.1v-3.1h-1.5v3.1h-3.1v1.5h3.1v3.1h1.5v-3.1h3.1v-1.5zm-14.1-.2c-2.4 0-3.6-3.2-3.6-5.1 0-.7.1-1.5.6-2.1.5-.6 1.3-.9 2-.9 2.4 0 3.6 3.2 3.6 5.2 0 .5-.1 1.4-.7 2.1-.4.5-1.2.8-1.9.8zm1.1 4.6c2.2 1.5 3.1 2.3 3.1 3.8 0 1.8-1.4 3.1-4.2 3.1-3 0-5-1.4-5-3.5 0-2 1.8-2.7 2.4-2.9 1.2-.4 2.7-.5 3-.5h.7z"/></svg>