<svg xmlns="http://www.w3.org/2000/svg" viewBox="0 0 40 40"><path fill-rule="evenodd" clip-rule="evenodd" fill="#4D4D4D" d="M20 0C9 0 0 9 0 20s9 20 20 20 20-9 20-20S31 0 20 0zm10 15.5v.6c0 6.5-5 14-14 14-2.8 0-5.4-.8-7.5-2.2.3.1.7.1 1.1.1 2.3 0 4.4-.8 6.1-2.1-2.2 0-4-1.5-4.6-3.4.3.1.6.1.9.1.5 0 .9-.1 1.3-.2-2.3-.5-4-2.4-4-4.8v-.1c.7.4 1.4.6 2.2.6-1.3-.9-2.2-2.4-2.2-4.1 0-.9.2-1.7.7-2.5 2.4 3 6.1 4.9 10.1 5.1-.1-.4-.1-.7-.1-1.1 0-2.7 2.2-4.9 4.9-4.9 1.4 0 2.7.6 3.6 1.6 1.1-.2 2.2-.6 3.1-1.2-.4 1.2-1.1 2.1-2.2 2.7 1-.1 1.9-.4 2.8-.8-.5 1.1-1.3 1.9-2.2 2.6z"/></svg>