<svg xmlns="http://www.w3.org/2000/svg" viewBox="0 0 16.1 15"><path fill="#009AD8" d="M13.4 0H2.7C1.1 0-.2 1.4 0 3l.8 7c.1 1.4 1.3 2.4 2.6 2.4h4.7l2.2 2.3c.6.6 1.7.3 1.9-.6l.3-1.7c1.6 0 2.6-1.1 2.8-2.4l.7-7c.2-1.6-1-3-2.6-3zm1.7 2.9l-.8 7c-.1.9-.8 1.6-1.7 1.6h-.5c-.2 0-.4.2-.5.4l-.4 2.1c0 .1-.2.2-.3.1l-1.6-1.6c.5-.2.3-.9-.2-.9H3.4c-.9 0-1.6-.7-1.7-1.6L.9 3c-.1-1 .7-1.9 1.7-1.9h10.7c1.1-.2 1.9.7 1.8 1.8zM5.2 5.7c-.4 0-.8.3-.8.8 0 .4.3.8.8.8.4 0 .8-.4.8-.8s-.4-.8-.8-.8zm2.8 0c-.4 0-.8.3-.8.8 0 .4.3.8.8.8.4 0 .8-.3.8-.8 0-.4-.4-.8-.8-.8zm2.8 0c-.4 0-.8.3-.8.8 0 .4.3.8.8.8.4 0 .8-.3.8-.8 0-.4-.3-.8-.8-.8z"/></svg>