<svg xmlns="http://www.w3.org/2000/svg" viewBox="0 0 17 13"><path fill="#009AD8" d="M14.9 0H2.1C.9 0 0 .9 0 2.1v8.8C0 12.1.9 13 2.1 13h12.8c1.1 0 2.1-.9 2.1-2.1V2.1C17 .9 16 0 14.9 0zm0 12H2.1c-.6 0-1.1-.5-1.1-1.1V2.1C.9 1.5 1.5 1 2.1 1h12.8c.6 0 1.1.5 1.1 1.1v8.8c0 .6-.5 1.1-1.1 1.1zm-4.2-5.6l4.2-3.7c.2-.2.2-.5 0-.7-.2-.2-.5-.2-.7 0L8.5 7.1l-1.1-1-.1-.1-4.5-4.1c-.2-.1-.5-.1-.7.1-.2.2-.2.5 0 .7l4.2 3.8-4.2 3.9c-.2.2-.2.5 0 .7.1.1.2.2.3.2.1 0 .2 0 .3-.1l4.2-4 1.2 1c.1.1.2.1.3.1.1 0 .2 0 .3-.1L10 7l4.2 4c.1.1.2.1.3.1.1 0 .2 0 .3-.1.2-.2.2-.5 0-.7l-4.1-3.9z"/></svg>