<svg xmlns="http://www.w3.org/2000/svg" viewBox="0 0 40 50"><linearGradient id="a" gradientUnits="userSpaceOnUse" y1="25.007" x2="39.98" y2="25.007"><stop offset="0" stop-color="#009dff"/><stop offset="1" stop-color="#46e8ff"/></linearGradient><path fill="url(#a)" d="M6.9 21.9c-1.3 0-1.3 2.1 0 2.1h15.9c1.3 0 1.3-2.1 0-2.1H6.9zm15.9 4.9H6.9c-1.3 0-1.3 2.1 0 2.1h15.9c1.3 0 1.3-2.1 0-2.1zm0 4.6H6.9c-1.3 0-1.3 2.1 0 2.1h15.9c1.3 0 1.3-2.1 0-2.1zm0 4.9H6.9c-1.3 0-1.3 2.1 0 2.1h15.9c1.3 0 1.3-2.1 0-2.1zm-.3 4.6H6.6c-1.3 0-1.3 2.1 0 2.1h15.9c1.3 0 1.3-2.1 0-2.1zM0 11.3V50h29.7V16.7l-5.5-5.4H0zm27.1 36.1H2.6V13.9h20.3V18h4.3v29.4zM5 5.4v4.5h2.6V8h20.3v4.1h4.3v29.5H31v2.6h3.7V10.8l-5.5-5.4H5zM34.5 0H10.3v4.5h2.6V2.6h20.3v4.1h4.3v29.5h-1.1v2.6H40V5.4L34.5 0z"/></svg>