<svg xmlns="http://www.w3.org/2000/svg" viewBox="0 0 61 50"><linearGradient id="a" gradientUnits="userSpaceOnUse" y1="24.999" x2="60.987" y2="24.999"><stop offset="0" stop-color="#009dff"/><stop offset="1" stop-color="#46e8ff"/></linearGradient><path fill="url(#a)" d="M53.5 12.8V0L26.4 9.8H9l-9 3v17.5l9 3h2.8V50h12.4V33.3h2.2L53.5 43V30.3l7.5-2.5V15.3l-7.5-2.5zm-46 16.1l-3.7-1.2V15.5l3.7-1.2v14.6zm13 17.4h-5v-13h5v13zm4.4-16.7H11.2V13.5h13.7v16.1zm24.9 8.1l-21.2-7.6V12.9l21.2-7.6v32.4zm7.5-12.5l-3.7 1.2v-9.7l3.7 1.2v7.3z"/></svg>