<svg xmlns="http://www.w3.org/2000/svg" viewBox="0 0 63.4 50"><linearGradient id="a" gradientUnits="userSpaceOnUse" x1="31.678" y1="49.984" x2="31.678"><stop offset="0" stop-color="#009dff"/><stop offset="1" stop-color="#46e8ff"/></linearGradient><path fill-rule="evenodd" clip-rule="evenodd" fill="url(#a)" d="M59.5 38.4V0H3.9v38.4H0v3.2C0 46.2 3.8 50 8.4 50H55c4.6 0 8.4-3.8 8.4-8.4v-3.2h-3.9zM7.8 3.9h47.8v34.5h-3.9V7.8H11.6v30.6H7.8V3.9zm40 7.8v26.7H15.5V11.7h32.3zM55 46.1H8.4c-2.2 0-4.1-1.7-4.5-3.8h25.8v1.4h3.9v-1.4h25.8c-.4 2.1-2.2 3.8-4.4 3.8zM34.5 22l3.4 3.4-3.4 3.4c-.2.2-.2.4 0 .6l1 1c.1.1.2.1.3.1s.2 0 .3-.1l4.7-4.8c.2-.2.2-.4 0-.6L36 20.4c-.1-.1-.4-.1-.5 0l-1 1c-.2.2-.2.4 0 .6zM29 32c0 .1.1.2.2.2l.8.2h.1c.2 0 .3-.1.4-.3L34.3 19v-.3c0-.1-.1-.2-.2-.2l-.8-.2c-.2-.1-.4.1-.5.3L29 31.7v.3zm-1.7-1.6c.1.1.2.1.3.1.1 0 .2 0 .3-.1l1-1c.2-.2.2-.4 0-.6l-3.4-3.4 3.4-3.4c.1-.1.1-.2.1-.3 0-.1 0-.2-.1-.3l-1-1c-.1-.1-.2-.1-.3-.1-.1 0-.2 0-.3.1l-4.7 4.8c-.2.2-.2.4 0 .6l4.7 4.6z"/></svg>