<svg xmlns="http://www.w3.org/2000/svg" viewBox="0 0 49.2 50"><linearGradient id="a" gradientUnits="userSpaceOnUse" y1="24.994" x2="49.18" y2="24.994"><stop offset="0" stop-color="#009dff"/><stop offset="1" stop-color="#46e8ff"/></linearGradient><path fill="url(#a)" d="M43.1 8V0h-37v8L0 13.6V43h17l7.6 7 7.6-7h17V13.6L43.1 8zm-7.2-5l-8.7 5H22l-8.7-5h22.6zm4.2 1.1V8L33 14.5 29.8 10l10.3-5.9zm-11 10.1l-2.3 3.3h-4.3l-2.3-3.3 2.2-3.2h4.5l2.2 3.2zM9.1 4.1L19.4 10l-3.2 4.5L9.1 8V4.1zM16.4 40H3V14.9l4.6-4.1 9.1 8.3 1.6-2.2 1.8 2.6L16.4 40zm8.2 5.9L19.2 41l3.7-20.4h3.3L29.9 41l-5.3 4.9zm8.2-5.9l-3.7-20.6 1.8-2.6 1.6 2.2 9.1-8.3 4.6 4.1V40H32.8z"/></svg>