<svg xmlns="http://www.w3.org/2000/svg" viewBox="0 0 52.5 50"><linearGradient id="a" gradientUnits="userSpaceOnUse" y1="24.996" x2="52.516" y2="24.996"><stop offset="0" stop-color="#009dff"/><stop offset="1" stop-color="#46e8ff"/></linearGradient><path fill="url(#a)" d="M51.8 15.4c-2.3-3.1-6.7-5.7-12.3-7.3L36.3 0H16.2L13 8.1C7.4 9.7 3 12.3.7 15.4l-.7.9.7.9c2.3 3 6.5 5.6 11.9 7.2V41h3.2V24.8h21.1v7.3H40v-7.7c5.4-1.6 9.6-4.1 11.9-7.2l.7-.9-.8-.9zM18.4 3.2h15.8L36 7.8H16.5l1.9-4.6zm-4 7.8h23.8c3.4.9 6.3 2.2 8.4 3.8H5.9c2.2-1.6 5.1-2.9 8.5-3.8zm23.8 10.7H14.4c-3.4-.9-6.3-2.2-8.4-3.8h40.7c-2.2 1.5-5.2 2.8-8.5 3.8zM20.8 32.2H24v-5.3h-3.2v5.3zm0 8.9H24v-5.3h-3.2v5.3zm0 8.9H24v-5.3h-3.2V50zm7.8-17.8h3.2v-5.3h-3.2v5.3zm0 8.9h3.2v-5.3h-3.2v5.3zm0 8.9h3.2v-5.3h-3.2V50zm-16 0h3.2v-5.3h-3.2V50zm24.2 0H40V35.8h-3.2V50z"/></svg>