<?xml version="1.0" encoding="utf-8"?>
<!-- Generator: Adobe Illustrator 18.1.1, SVG Export Plug-In . SVG Version: 6.00 Build 0)  -->
<svg version="1.1" id="Слой_1" xmlns="http://www.w3.org/2000/svg" xmlns:xlink="http://www.w3.org/1999/xlink" x="0px" y="0px"
	 viewBox="236.1 2198.2 2400 711.8" enable-background="new 236.1 2198.2 2400 711.8" xml:space="preserve">
<g id="Logo2">
	<rect x="413.4" y="2434.6" fill="none" width="513.4" height="305.2"/>
	<rect x="484" y="2434.6" fill="none" width="389.9" height="256.7"/>
	<rect x="845.6" y="2366.7" fill="none" width="958.7" height="251.3"/>
	<g enable-background="new    ">
		<path fill="#474647" d="M902.9,2479.8l-21.6,31.4c3.1,8.8-11.8,18.1-18.6,18.1c-3.1,0-5.8-2.1-5.8-5.2c0-4.8,1.7-8.3,4.3-12.3
			l23.4-38.5c-4-1-13.1-4.3-12.1-9.3c2.3-13.1,15.4-25.2,38.7-26l37.3-53.9c-18.3,3.1-37,6.3-54.1,13.1v0.5
			c15.8,1.5,20.8,0.5,20.8,4.3c0,2.1-3.5,2.7-4.8,2.7l-19.6,2.1c-7.1,0.8-16.1,2.5-23.4,2.5c-3.8,0-9.1-1.3-9.1-6
			c0-8.1,7.7-24.2,12.9-30.4c11.8-14.1,66.2-27.5,117-27.5c23.1,0,72.2,2.3,72.2,34.5c0,12.9-8.1,32.2-18.1,40.2
			c-20.6,16.6-33.3,16.4-123.8,33.3v0.5l67.9,21.6c43.3,13.8,42.3,20.4,43.5,22.4c4.8,8.8,5.8,27.7-2.7,27.7
			c-6.5,0-24.4-8.8-31.2-11.3L902.9,2479.8z M935.4,2432.2l62.7-16.4c10.4-2.7,44.1-17.1,44.1-29.4c0-7.7-27.2-8.1-32.7-7.5
			l-46.6,3.3c0.2,8.8-4.3,14.6-8.8,21.6L935.4,2432.2z"/>
		<path fill="#474647" d="M1140.9,2479.8c-15.4,17.9-43.1,41.5-67.9,41.5c-18.3,0-26.9-16.4-27.5-32.9c-1-32.9,35.4-66.6,68.2-66.4
			c8.1,0,18.1,2.1,18.1,12.1c0,12.3-12.3,31-60.6,46.8l-0.5,5.6c-0.8,9.6,7.5,12.9,15.6,12.9c17.9,0,39-18.3,52.3-28.9
			L1140.9,2479.8z M1109.8,2439.2c0-1.7-1.3-3.3-3.1-2.7c-12.5,3.3-27.2,15.4-34,32C1094.9,2460.9,1110,2443.5,1109.8,2439.2z"/>
		<path fill="#474647" d="M1152.5,2476.7l-0.5,6.8c13.6-12.3,67-58.3,84.1-58.3c8.5,0,13.1,10.8,13.1,18.1c0,23.4-34,36.2-50.8,46.3
			c4.8,6.5,7.5,10.6,16.4,11.1c4.8,0.2,14.6-3.3,45.8-28.1l2.5,10.4c-12.5,11.1-42.8,40-59.7,40c-16.6,0-28.1-19.1-36-31.2
			c-5.6,5-9.6,10.8-13.3,17.1c-2.1,3.8-4.3,7.5-9.1,7.5c-8.8,0-11.1-24.4-11.1-30.4c0-16.1,10-29.2,18.6-42.5
			c27.2-42.8,87.6-91.1,98.7-90.3c3.5,0.2,6.3,3.1,6.3,6.5C1257.5,2376.8,1167.7,2460.1,1152.5,2476.7z M1215,2465.9
			c3.8-2.7,12.1-8.1,12.1-13.3c0-1.5-2.1-2.1-3.3-2.1c-9.3,0-35.8,17.7-42,26.2c3.5,1.3,6.8,3.1,9.6,5.6L1215,2465.9z"/>
		<path fill="#474647" d="M1339.5,2480c-13.8,14.4-37.5,39.8-59.1,39.8c-18.3,0-22.4-17.9-22.4-32.7c0-26.4,11.3-54.9,27.7-75
			c22.1-27.5,46-50.8,54.1-50.8c4.3,0,5.2,6,5,9.3c-1.7,23.9-8.3,46-62.9,98.9c-2.3,4.3-3.1,11.3-1.7,17.3
			c2.3,5.8,5.8,10.8,12.5,10.8c13.8,0,33.3-16.1,43.3-25.2L1339.5,2480z M1287.4,2446.3c17.9-16.6,33.5-40.8,38.1-55.1
			c-12.3,6-26.7,28.7-38.5,54.6L1287.4,2446.3z"/>
		<path fill="#474647" d="M1376.1,2500.1c-4.8,3.8-20.8,16.9-26.7,16.9c-7.1,0-21.6-16.6-22.1-29.7c-1-31.4,64.5-63.7,93.6-64.5
			c11.6-0.2,16.4,9.1,16.4,12.1c0,3.1-6.5,5.6-8.8,6.3c4.8,2.1,7.3,4.8,7.3,10.4c0,8.1-21.9,25.6-21.9,37.5c0,4.3,3.8,6,7.7,6
			c10.6,0,25-12.9,35.8-20.2l2.1,9.3c-10.8,12.3-44.5,39.3-56.8,39.3c-8.3,0-12.1-6-12.1-13.3c0-8.1,6-21.4,9.3-28.1l-0.5-0.5
			L1376.1,2500.1z M1345.5,2493.6c0.2,1.3,1.3,5.8,5,5c5-1,12.9-0.2,62.7-50.6l-0.5-0.5C1352.8,2465.9,1345.5,2481.3,1345.5,2493.6z
			"/>
		<path fill="#474647" d="M1542.6,2502.1c-5.8,5.6-14.8,15.8-23.4,15.8c-6,0-10.8-4.6-11.1-10.6c-0.2-7.3,5.8-18.9,22.1-43.7
			c0.5-0.5,1.5-2.5,1.5-3.3c0-1-0.8-1.7-1.7-1.7c-2.5,0-8.1,6-9.8,7.7c-13.1,13.8-27.2,28.9-39,43.5c-2.7,3.3-6.3,7.1-10.8,7.1
			c-12.1,0-15.6-19.6-15.6-28.7c0.2-24.6,26.9-58.3,42-56.4c3.8,0.5,11.3,0.5,11.3,5.8c0,5-7.1,12.5-10,16.1
			c-4.6,5.2-10,9.8-13.8,15.4c-2.7,3.8-7.3,7.7-7.3,13.1c0,0.5,0.8,2.3,1.7,2.3c1.3,0,4.3-3.3,5-4c12.3-12.9,57.1-57.6,73.5-57.6
			c6.8,0,10.4,5,10.4,11.6c0,11.1-17.9,31.4-23.4,41.2l0.5,0.5l55.8-44.1c2.5-2.1,8.8-7.1,11.8-7.1c2.1,0,4.6,6,5.2,7.1
			c1.7,2.7,4.6,6.5,4.6,10c0,4.3-5,9.8-7.7,12.9c-19.6,21.6-21.2,25.6-21.4,31.4c-0.2,3.1,3.1,7.1,6,6.3c5.2-1.3,8.1-1.3,39-22.4
			l1.5,11.8c-11.8,9.3-48.1,39-62.2,39c-7.5,0-12.9-7.3-12.9-14.6c0-12.5,12.3-30.4,18.6-40.8l-0.5-0.5L1542.6,2502.1z"/>
		<path fill="#474647" d="M1677.3,2500.1c-4.8,3.8-20.8,16.9-26.7,16.9c-7.1,0-21.6-16.6-22.1-29.7c-1-31.4,64.5-63.7,93.6-64.5
			c11.6-0.2,16.4,9.1,16.4,12.1c0,3.1-6.5,5.6-8.8,6.3c4.8,2.1,7.3,4.8,7.3,10.4c0,8.1-21.9,25.6-21.9,37.5c0,4.3,3.8,6,7.7,6
			c10.6,0,25-12.9,35.8-20.2l2.1,9.3c-10.8,12.3-44.5,39.3-56.8,39.3c-8.3,0-12.1-6-12.1-13.3c0-8.1,6-21.4,9.3-28.1l-0.5-0.5
			L1677.3,2500.1z M1646.9,2493.6c0.2,1.3,1.3,5.8,5,5c5-1,12.9-0.2,62.7-50.6l-0.5-0.5C1654.2,2465.9,1646.9,2481.3,1646.9,2493.6z
			"/>
	</g>
	<rect x="853.6" y="2576.6" fill="none" width="1782.5" height="107.7"/>
	<g enable-background="new    ">
		<path fill="#969696" d="M902.3,2619c-0.3,2.7-1,5.2-2.1,7.5s-2.4,4.3-4.2,6c-1.8,1.7-4,3.1-6.6,4c-2.6,0.9-5.6,1.5-9,1.5
			s-6.5-0.7-9.2-1.9c-2.7-1.3-5.1-3.1-7.1-5.4s-3.5-5.1-4.6-8.4c-1-3.3-1.6-6.9-1.6-10.9v-5.8c0-4,0.6-7.6,1.6-10.9
			c1-3.3,2.6-6,4.7-8.4c2.1-2.3,4.4-4.1,7.3-5.4c2.8-1.3,6-1.9,9.6-1.9c3.2,0,6.2,0.5,8.7,1.4c2.5,0.9,4.7,2.3,6.4,4
			c1.7,1.7,3.2,3.8,4.2,6c1,2.4,1.7,5,1.9,7.7h-7.6c-0.3-2.1-0.7-3.8-1.4-5.5c-0.6-1.6-1.5-3-2.5-4.1c-1-1.1-2.4-2.1-4-2.6
			s-3.5-0.9-5.7-0.9c-2.5,0-4.8,0.5-6.7,1.5s-3.5,2.4-4.9,4.1c-1.3,1.8-2.3,3.9-3,6.5c-0.7,2.5-1,5.2-1,8.3v5.8c0,2.8,0.3,5.5,0.9,8
			s1.5,4.7,2.7,6.5c1.3,1.8,2.7,3.3,4.7,4.3c1.8,1,4.1,1.6,6.6,1.6c2.4,0,4.4-0.3,6.2-0.9c1.7-0.6,3.1-1.4,4.1-2.5
			c1.1-1.1,1.9-2.4,2.5-4c0.6-1.6,1-3.4,1.4-5.5h7.7V2619z"/>
		<path fill="#969696" d="M909.6,2615.6c0-3.1,0.5-6,1.4-8.7c0.9-2.6,2.2-4.9,3.9-6.8s3.8-3.5,6.2-4.6c2.4-1.1,5.1-1.7,8.1-1.7
			c3.1,0,5.7,0.6,8.2,1.7c2.4,1.1,4.4,2.6,6.2,4.6s3,4.2,3.9,6.8s1.4,5.5,1.4,8.7v0.9c0,3.1-0.5,6-1.4,8.7c-0.9,2.6-2.2,4.9-3.9,6.8
			c-1.7,1.9-3.8,3.4-6.2,4.6c-2.4,1.1-5.1,1.6-8.1,1.6s-5.7-0.6-8.1-1.6c-2.4-1.1-4.4-2.6-6.2-4.6c-1.7-1.9-3-4.2-3.9-6.8
			c-0.9-2.6-1.4-5.5-1.4-8.7v-0.9H909.6z M917,2616.4c0,2.2,0.2,4.1,0.8,6c0.5,1.9,1.3,3.5,2.3,5c1,1.5,2.3,2.6,3.8,3.4
			c1.5,0.8,3.3,1.3,5.4,1.3c2.1,0,3.8-0.5,5.2-1.3c1.5-0.8,2.7-1.9,3.8-3.4c1-1.5,1.7-3.1,2.3-5c0.6-1.9,0.8-3.9,0.8-6v-0.9
			c0-2.1-0.2-4.1-0.8-6c-0.6-1.9-1.3-3.5-2.3-5c-1-1.5-2.3-2.6-3.8-3.4c-1.5-0.9-3.3-1.3-5.4-1.3c-2.1,0-3.8,0.5-5.2,1.3
			c-1.5,0.9-2.7,2.1-3.8,3.4c-1,1.5-1.8,3.1-2.3,5s-0.8,3.9-0.8,6V2616.4z"/>
		<path fill="#969696" d="M973.1,2612.4c1.5,0,2.8-0.1,3.9-0.5c1-0.3,1.8-0.7,2.5-1.3c0.7-0.6,1.1-1.1,1.4-1.9
			c0.2-0.8,0.5-1.6,0.5-2.5c0-0.8-0.1-1.7-0.5-2.4c-0.3-0.8-0.8-1.5-1.5-2.1c-0.7-0.6-1.6-1.1-2.6-1.5s-2.4-0.6-4-0.6
			c-1.3,0-2.4,0.2-3.5,0.6s-2.1,0.8-2.8,1.5c-0.8,0.6-1.5,1.4-1.9,2.2c-0.5,0.8-0.7,1.7-0.7,2.6h-7.3c0-1.9,0.5-3.8,1.3-5.2
			c0.9-1.6,2.1-2.8,3.5-4c1.5-1.1,3.2-1.9,5.2-2.5c1.9-0.6,4.1-0.9,6.3-0.9c2.5,0,4.7,0.2,6.6,0.8c1.9,0.6,3.6,1.4,5,2.4
			c1.4,1,2.4,2.4,3.2,3.9c0.7,1.6,1.1,3.3,1.1,5.4c0,1.9-0.6,3.6-1.7,5.2c-1.1,1.6-2.8,2.8-4.9,3.9c2.5,0.8,4.3,2.1,5.6,3.8
			c1.3,1.7,1.8,3.8,1.8,6.2c0,2.1-0.5,3.9-1.3,5.5c-0.8,1.6-1.9,3-3.4,4c-1.5,1-3.2,1.9-5.2,2.5c-2.1,0.6-4.3,0.9-6.7,0.9
			c-2.1,0-4.1-0.2-6.2-0.8c-2.1-0.6-3.9-1.4-5.5-2.4c-1.6-1-2.8-2.5-3.9-4.1c-1-1.7-1.5-3.6-1.5-6h7.3c0,1,0.2,1.9,0.7,2.8
			c0.5,0.9,1.1,1.7,1.9,2.4c0.8,0.7,1.8,1.3,3.1,1.7c1.3,0.5,2.5,0.7,4,0.7c1.5,0,2.8-0.2,4.1-0.6c1.1-0.3,2.2-0.9,3-1.5
			c0.8-0.7,1.4-1.4,1.7-2.2c0.3-0.8,0.6-1.7,0.6-2.6c0-2.4-0.7-4.1-2.2-5.1c-1.5-1-3.6-1.6-6.7-1.6H966v-6.2h7.1V2612.4z"/>
		<path fill="#969696" d="M998.5,2631.3c0.9-1,1.7-2.1,2.5-3.2c0.8-1,1.5-2.4,2.2-4c0.7-1.6,1.3-3.4,1.7-5.6c0.5-2.2,0.8-4.9,1-8.1
			l0.7-16.1h27.6v36.8h5.5v18.6h-7.3v-12.5h-29.8v12.5h-7.3v-18.6h3.3V2631.3z M1013.2,2610.6c-0.1,2.5-0.3,4.8-0.7,6.8
			c-0.3,2.1-0.8,4-1.4,5.7c-0.6,1.7-1.1,3.2-1.8,4.6c-0.7,1.4-1.4,2.6-2.2,3.6h19.7v-30h-13.1L1013.2,2610.6z"/>
		<path fill="#969696" d="M1074,2637.4c-0.2-0.6-0.5-1.1-0.7-2.1c-0.2-0.9-0.3-1.6-0.3-2.5c-0.7,0.7-1.5,1.4-2.3,2.1
			c-0.9,0.7-1.8,1.3-2.8,1.7s-2.2,0.9-3.3,1.1s-2.4,0.5-3.8,0.5c-2.2,0-4.2-0.3-5.9-1c-1.8-0.7-3.3-1.6-4.6-2.7
			c-1.3-1.1-2.2-2.5-2.8-4c-0.7-1.6-1-3.2-1-5c0-2.3,0.5-4.3,1.4-6s2.2-3.2,3.9-4.4c1.7-1.1,3.6-2.1,6-2.7c2.4-0.6,5-0.9,8-0.9h7.3
			v-3.3c0-2.5-0.8-4.6-2.3-6.2c-1.5-1.5-3.8-2.3-6.7-2.3c-1.4,0-2.6,0.2-3.8,0.6c-1.1,0.3-2.1,0.9-2.8,1.5s-1.5,1.4-1.8,2.2
			c-0.5,0.8-0.7,1.7-0.7,2.6h-7.3c0-1.5,0.5-3.1,1.3-4.6s1.9-2.8,3.4-4.1c1.5-1.3,3.3-2.2,5.4-3c2.1-0.8,4.4-1.1,7.1-1.1
			c2.3,0,4.4,0.3,6.4,0.9s3.6,1.5,5,2.7c1.4,1.3,2.5,2.7,3.3,4.4c0.8,1.8,1.1,3.9,1.1,6.3v19.8c0,1.5,0.1,3,0.3,4.6
			c0.2,1.6,0.6,3,1.1,4.1v0.7h-8V2637.4z M1061.8,2631.8c1.4,0,2.5-0.2,3.8-0.6c1.1-0.3,2.2-0.8,3.2-1.5c0.9-0.6,1.8-1.3,2.5-2.1
			c0.7-0.8,1.3-1.6,1.6-2.4v-8.8h-6c-4.2,0-7.4,0.7-9.7,1.9s-3.4,3.3-3.4,5.9c0,1,0.1,1.9,0.6,2.8c0.3,0.9,0.9,1.7,1.6,2.3
			c0.7,0.7,1.6,1.1,2.6,1.6C1059.3,2631.6,1060.6,2631.8,1061.8,2631.8z"/>
		<path fill="#969696" d="M1126.6,2637.4h-7.3v-18.2h-19.6v18.2h-7.3v-42.7h7.3v18.6h19.6v-18.6h7.3V2637.4z"/>
		<path fill="#969696" d="M1166,2594.6h7.3v42.7h-7.3v-31.2l-19.7,31.2h-7.3v-42.7h7.3v31.2L1166,2594.6z"/>
		<path fill="#969696" d="M1202.7,2638.2c-3,0-5.7-0.6-8.1-1.6c-2.4-1-4.4-2.5-6.2-4.3c-1.7-1.8-3.1-4-4-6.5
			c-0.9-2.5-1.4-5.2-1.4-8.3v-1.7c0-3.5,0.6-6.6,1.6-9.3c1-2.7,2.4-5,4.2-6.9c1.7-1.8,3.8-3.3,5.9-4.3c2.3-1,4.6-1.5,6.9-1.5
			c3.1,0,5.7,0.6,7.9,1.6c2.2,1,4,2.5,5.5,4.4c1.5,1.8,2.5,4.1,3.2,6.6c0.7,2.5,1,5.4,1,8.3v3.3h-28.9c0,1.9,0.3,3.9,0.9,5.6
			c0.6,1.7,1.5,3.2,2.5,4.4c1.1,1.3,2.4,2.3,4,3c1.6,0.7,3.3,1.1,5.2,1.1c2.6,0,4.8-0.6,6.6-1.6c1.8-1,3.3-2.4,4.7-4.2l4.4,3.5
			c-0.7,1-1.5,2.1-2.5,3.1c-1,1-2.2,1.8-3.4,2.6c-1.3,0.8-2.8,1.4-4.4,1.8C1206.8,2637.9,1204.8,2638.2,1202.7,2638.2z
			 M1201.9,2599.8c-1.5,0-2.8,0.2-4.1,0.8s-2.4,1.4-3.3,2.4c-1,1-1.8,2.3-2.4,3.9c-0.7,1.5-1.1,3.3-1.4,5.2h21.4v-0.6
			c-0.1-1.4-0.3-2.8-0.7-4.2c-0.3-1.4-1-2.6-1.8-3.8c-0.8-1.1-1.8-2.1-3.1-2.7C1205.3,2600.1,1203.7,2599.8,1201.9,2599.8z"/>
		<path fill="#969696" d="M1234.4,2634.5c0,1.1-0.1,2.4-0.5,3.8c-0.3,1.3-0.8,2.6-1.4,3.9c-0.6,1.3-1.3,2.5-2.2,3.6
			c-0.8,1.1-1.8,2.2-3,3.1l-4.1-2.8c1.3-1.7,2.2-3.5,2.8-5.4c0.7-1.8,1-3.8,1-5.9v-5.9h7.2L1234.4,2634.5L1234.4,2634.5z"/>
		<path fill="#969696" d="M1299.8,2616.4c0,3.2-0.3,6-1.1,8.7c-0.7,2.6-1.8,4.9-3.2,6.8c-1.4,1.9-3.2,3.4-5.2,4.6
			c-2.1,1-4.4,1.6-7.1,1.6c-2.7,0-5-0.5-7.1-1.3c-2.1-0.8-3.8-2.1-5.2-3.6v20.6h-7.3v-59.1h6.7l0.3,4.8c1.5-1.8,3.2-3.2,5.2-4.1
			c2.1-0.9,4.4-1.4,7.2-1.4s5,0.6,7.2,1.6s3.8,2.5,5.2,4.4c1.4,1.9,2.5,4.2,3.2,6.8s1.1,5.7,1.1,8.9L1299.8,2616.4L1299.8,2616.4z
			 M1292.6,2615.6c0-2.2-0.2-4.1-0.7-6c-0.5-1.9-1.1-3.5-2.1-5c-0.9-1.4-2.2-2.5-3.6-3.4c-1.5-0.8-3.2-1.3-5.1-1.3
			c-1.3,0-2.4,0.1-3.4,0.5c-1,0.3-1.9,0.7-2.7,1.3c-0.8,0.6-1.6,1.1-2.2,1.8c-0.7,0.7-1.1,1.5-1.7,2.4v20.4c0.5,0.8,1,1.6,1.7,2.4
			c0.7,0.8,1.4,1.4,2.2,1.8c0.8,0.6,1.7,0.9,2.7,1.3c1,0.3,2.2,0.5,3.4,0.5c1.9,0,3.6-0.5,5.1-1.3c1.5-0.8,2.6-1.9,3.5-3.4
			c0.9-1.5,1.6-3.1,2.1-5c0.5-1.9,0.7-4,0.7-6v-0.8H1292.6z"/>
		<path fill="#969696" d="M1335.5,2637.4c-0.2-0.6-0.5-1.1-0.7-2.1c-0.2-0.9-0.3-1.6-0.3-2.5c-0.7,0.7-1.5,1.4-2.3,2.1
			c-0.9,0.7-1.8,1.3-2.8,1.7c-1,0.5-2.2,0.9-3.3,1.1s-2.4,0.5-3.8,0.5c-2.2,0-4.2-0.3-5.9-1c-1.8-0.7-3.3-1.6-4.6-2.7
			c-1.3-1.1-2.2-2.5-2.8-4c-0.7-1.6-1-3.2-1-5c0-2.3,0.5-4.3,1.4-6s2.2-3.2,3.9-4.4c1.7-1.1,3.6-2.1,6-2.7c2.4-0.6,5-0.9,8-0.9h7.3
			v-3.3c0-2.5-0.8-4.6-2.3-6.2c-1.5-1.5-3.8-2.3-6.7-2.3c-1.4,0-2.6,0.2-3.8,0.6s-2.1,0.9-2.8,1.5c-0.8,0.6-1.5,1.4-1.8,2.2
			c-0.5,0.8-0.7,1.7-0.7,2.6h-7.3c0-1.5,0.5-3.1,1.3-4.6c0.8-1.5,1.9-2.8,3.4-4.1c1.5-1.3,3.3-2.2,5.4-3c2.1-0.8,4.4-1.1,7.1-1.1
			c2.3,0,4.4,0.3,6.4,0.9s3.6,1.5,5,2.7c1.4,1.3,2.5,2.7,3.3,4.4c0.8,1.8,1.1,3.9,1.1,6.3v19.8c0,1.5,0.1,3,0.3,4.6
			c0.2,1.6,0.6,3,1.1,4.1v0.7h-8V2637.4z M1323.4,2631.8c1.4,0,2.5-0.2,3.8-0.6c1.1-0.3,2.2-0.8,3.2-1.5c0.9-0.6,1.8-1.3,2.5-2.1
			c0.7-0.8,1.3-1.6,1.6-2.4v-8.8h-6c-4.2,0-7.4,0.7-9.7,1.9s-3.4,3.3-3.4,5.9c0,1,0.1,1.9,0.6,2.8c0.3,0.9,0.9,1.7,1.6,2.3
			c0.7,0.7,1.6,1.1,2.6,1.6C1320.9,2631.6,1322.1,2631.8,1323.4,2631.8z"/>
		<path fill="#969696" d="M1368.5,2612.4c1.5,0,2.8-0.1,3.9-0.5c1-0.3,1.8-0.7,2.5-1.3c0.7-0.6,1.1-1.1,1.4-1.9
			c0.2-0.8,0.5-1.6,0.5-2.5c0-0.8-0.1-1.7-0.5-2.4c-0.3-0.8-0.8-1.5-1.5-2.1c-0.7-0.6-1.6-1.1-2.6-1.5s-2.4-0.6-4-0.6
			c-1.3,0-2.4,0.2-3.5,0.6s-2.1,0.8-2.8,1.5c-0.8,0.7-1.5,1.4-1.9,2.2c-0.5,0.8-0.7,1.7-0.7,2.6h-7.3c0-1.9,0.5-3.8,1.3-5.2
			c0.9-1.6,2.1-2.8,3.5-4c1.5-1.1,3.2-1.9,5.2-2.5c1.9-0.6,4.1-0.9,6.3-0.9c2.5,0,4.7,0.2,6.6,0.8c1.9,0.6,3.6,1.4,5,2.4
			c1.4,1,2.4,2.4,3.2,3.9c0.7,1.6,1.1,3.3,1.1,5.4c0,1.9-0.6,3.6-1.7,5.2c-1.1,1.6-2.8,2.8-4.9,3.9c2.5,0.8,4.3,2.1,5.6,3.8
			c1.3,1.7,1.8,3.8,1.8,6.2c0,2.1-0.5,3.9-1.3,5.5c-0.8,1.6-1.9,3-3.4,4c-1.5,1-3.2,1.9-5.2,2.5c-2.1,0.6-4.3,0.9-6.7,0.9
			c-2.1,0-4.1-0.2-6.2-0.8c-2.1-0.6-3.9-1.4-5.5-2.4c-1.6-1-2.8-2.5-3.9-4.1c-1-1.7-1.5-3.6-1.5-6h7.3c0,1,0.2,1.9,0.7,2.8
			c0.5,0.9,1.1,1.7,1.9,2.4c0.8,0.7,1.8,1.3,3.1,1.7c1.3,0.5,2.5,0.7,4,0.7s2.8-0.2,4.1-0.6c1.1-0.3,2.2-0.9,3-1.5
			c0.8-0.6,1.4-1.4,1.7-2.2c0.3-0.8,0.6-1.7,0.6-2.6c0-2.4-0.7-4.1-2.2-5.1c-1.5-1-3.6-1.6-6.7-1.6h-7.3v-6.2h7.1V2612.4z"/>
		<path fill="#969696" d="M1394.9,2637.4v-42.7h16.6c2.7,0,5.1,0.2,7.3,0.7c2.2,0.5,4,1.1,5.6,2.2c1.5,0.9,2.7,2.2,3.5,3.6
			c0.8,1.5,1.3,3.2,1.3,5.2c0,1.9-0.6,3.8-1.8,5.4c-1.3,1.6-3,2.8-5.2,3.6c1.4,0.3,2.6,0.8,3.6,1.5c1,0.7,1.9,1.4,2.7,2.3
			c0.7,0.9,1.3,1.8,1.7,2.8c0.3,1,0.6,2.2,0.6,3.3c0,2.1-0.3,3.8-1.1,5.4c-0.8,1.5-1.8,2.7-3.3,3.8c-1.4,1-3.2,1.7-5.1,2.3
			c-2.1,0.6-4.3,0.8-6.8,0.8h-19.5V2637.4z M1402.1,2612.8h9.5c6.8,0,10.3-2.1,10.3-6c0-4.1-3.4-6.2-10.4-6.2h-9.3L1402.1,2612.8
			L1402.1,2612.8z M1402.1,2618.6v12.9h12.1c3.1,0,5.4-0.6,6.8-1.7c1.5-1.1,2.3-2.7,2.3-4.8s-0.8-3.6-2.3-4.7
			c-1.5-1-3.8-1.7-6.8-1.7H1402.1z"/>
		<path fill="#969696" d="M1468.1,2594.6h7.3v42.7h-7.3v-31.2l-19.7,31.2h-7.3v-42.7h7.3v31.2L1468.1,2594.6z"/>
		<path fill="#969696" d="M1518.9,2600.6h-14.4v36.8h-7.3v-36.8h-14v-5.9h35.7V2600.6z"/>
		<path fill="#969696" d="M1553.7,2594.6h7.3v42.7h-7.3v-31.2l-19.7,31.2h-7.3v-42.7h7.3v31.2L1553.7,2594.6z"/>
		<path fill="#969696" d="M1590.4,2638.2c-3,0-5.7-0.6-8.1-1.6c-2.4-1-4.4-2.5-6.2-4.3c-1.7-1.8-3.1-4-4-6.5s-1.4-5.2-1.4-8.3v-1.7
			c0-3.5,0.6-6.6,1.6-9.3c1-2.7,2.4-5,4.2-6.9c1.7-1.8,3.8-3.3,5.9-4.3c2.3-1,4.6-1.5,6.9-1.5c3.1,0,5.7,0.6,7.9,1.6
			c2.2,1,4,2.5,5.5,4.4c1.5,1.8,2.5,4.1,3.2,6.6c0.7,2.5,1,5.4,1,8.3v3.3h-28.9c0,1.9,0.3,3.9,0.9,5.6c0.6,1.7,1.5,3.2,2.5,4.4
			c1.1,1.3,2.4,2.3,4,3c1.6,0.7,3.3,1.1,5.2,1.1c2.6,0,4.8-0.6,6.6-1.6c1.8-1,3.3-2.4,4.7-4.2l4.4,3.5c-0.7,1-1.5,2.1-2.5,3.1
			c-1,1-2.2,1.8-3.4,2.6c-1.3,0.8-2.8,1.4-4.4,1.8C1594.5,2637.9,1592.5,2638.2,1590.4,2638.2z M1589.4,2599.8
			c-1.5,0-2.8,0.2-4.1,0.8s-2.4,1.4-3.3,2.4c-1,1-1.8,2.3-2.4,3.9c-0.7,1.5-1.1,3.3-1.4,5.2h21.4v-0.6c-0.1-1.4-0.3-2.8-0.7-4.2
			c-0.3-1.4-1-2.6-1.8-3.8c-0.8-1.1-1.8-2.1-3.1-2.7C1593,2600.1,1591.4,2599.8,1589.4,2599.8z"/>
		<path fill="#969696" d="M1654.3,2597c2.7,0,5.2,0.5,7.5,1.5c2.2,1,4,2.3,5.6,4.1c1.5,1.7,2.7,3.8,3.5,6.2c0.8,2.4,1.3,4.9,1.3,7.6
			v0.9c0,3-0.5,5.7-1.3,8.3c-0.9,2.5-2.1,4.8-3.8,6.6c-1.6,1.8-3.6,3.3-6,4.3c-2.4,1-5,1.6-8.1,1.6c-3,0-5.7-0.6-8.1-1.6
			c-2.4-1-4.3-2.5-6-4.3c-1.7-1.8-2.8-4.1-3.8-6.6s-1.3-5.4-1.3-8.3v-0.9v-0.2v-2.7c0-4.9,0.5-9.1,1.4-12.8c0.9-3.6,2.3-6.7,4-9.2
			c1.7-2.5,3.8-4.6,6.2-6c2.4-1.5,5-2.5,7.9-3.1c1.5-0.2,2.8-0.6,4.1-0.9s2.3-0.7,3.1-1.1c0.8-0.5,1.5-1,1.9-1.7
			c0.5-0.7,0.7-1.6,0.7-2.6h6c0,2.6-0.5,4.7-1.3,6.2c-0.8,1.5-1.8,2.6-3.2,3.5c-1.4,0.8-2.8,1.5-4.6,1.8c-1.7,0.5-3.5,0.8-5.4,1.3
			c-1.8,0.3-3.5,0.9-5.1,1.6c-1.6,0.7-3.1,1.6-4.3,2.7c-1.3,1.1-2.4,2.6-3.2,4.3s-1.6,3.9-1.9,6.3c1.7-1.9,3.8-3.5,6.2-4.8
			C1648.7,2597.6,1651.3,2597,1654.3,2597z M1652.9,2603.1c-2.1,0-3.8,0.3-5.2,1.1c-1.5,0.7-2.7,1.7-3.6,3s-1.7,2.6-2.2,4.2
			c-0.5,1.6-0.7,3.3-0.7,5.1v0.9c0,2.1,0.2,3.9,0.7,5.7c0.5,1.8,1.1,3.4,2.2,4.8c1,1.4,2.2,2.4,3.6,3.2c1.5,0.8,3.2,1.3,5.2,1.3
			c2.1,0,3.8-0.5,5.2-1.3c1.5-0.8,2.7-1.9,3.6-3.2c0.9-1.3,1.7-3,2.2-4.8c0.5-1.8,0.7-3.8,0.7-5.7v-0.9c0-1.7-0.2-3.4-0.7-5.1
			c-0.5-1.6-1.3-3.1-2.2-4.2c-1-1.3-2.2-2.2-3.6-3C1656.7,2603.4,1655,2603.1,1652.9,2603.1z"/>
		<path fill="#969696" d="M1707.2,2594.6h7.3v42.7h-7.3v-31.2l-19.7,31.2h-7.3v-42.7h7.3v31.2L1707.2,2594.6z"/>
		<path fill="#969696" d="M1741.7,2612.4c1.5,0,2.8-0.1,3.9-0.5c1-0.3,1.8-0.7,2.5-1.3c0.7-0.6,1.1-1.1,1.4-1.9
			c0.2-0.8,0.5-1.6,0.5-2.5c0-0.8-0.1-1.7-0.5-2.4c-0.3-0.8-0.8-1.5-1.5-2.1c-0.7-0.6-1.6-1.1-2.6-1.5s-2.4-0.6-4-0.6
			c-1.3,0-2.4,0.2-3.5,0.6s-2.1,0.8-2.8,1.5c-0.8,0.7-1.5,1.4-1.9,2.2c-0.5,0.8-0.7,1.7-0.7,2.6h-7.3c0-1.9,0.5-3.8,1.3-5.2
			c0.9-1.6,2.1-2.8,3.5-4c1.5-1.1,3.2-1.9,5.2-2.5c1.9-0.6,4.1-0.9,6.3-0.9c2.5,0,4.7,0.2,6.6,0.8c1.9,0.6,3.6,1.4,5,2.4
			c1.4,1,2.4,2.4,3.2,3.9c0.7,1.6,1.1,3.3,1.1,5.4c0,1.9-0.6,3.6-1.7,5.2c-1.1,1.6-2.8,2.8-4.9,3.9c2.5,0.8,4.3,2.1,5.6,3.8
			s1.8,3.8,1.8,6.2c0,2.1-0.5,3.9-1.3,5.5c-0.8,1.6-1.9,3-3.4,4c-1.5,1-3.2,1.9-5.2,2.5c-2.1,0.6-4.3,0.9-6.7,0.9
			c-2.1,0-4.1-0.2-6.2-0.8c-2.1-0.6-3.9-1.4-5.5-2.4c-1.6-1-2.8-2.5-3.9-4.1c-1-1.7-1.5-3.6-1.5-6h7.3c0,1,0.2,1.9,0.7,2.8
			c0.5,0.9,1.1,1.7,1.9,2.4c0.8,0.7,1.8,1.3,3.1,1.7s2.5,0.7,4,0.7s2.8-0.2,4.1-0.6c1.1-0.3,2.2-0.9,3-1.5c0.8-0.6,1.4-1.4,1.7-2.2
			c0.3-0.8,0.6-1.7,0.6-2.6c0-2.4-0.7-4.1-2.2-5.1c-1.5-1-3.6-1.6-6.7-1.6h-7.3v-6.2h7.1V2612.4z"/>
		<path fill="#969696" d="M1802.3,2637.4h-7.3v-18.2h-19.6v18.2h-7.3v-42.7h7.3v18.6h19.6v-18.6h7.3V2637.4z"/>
		<path fill="#969696" d="M1831.8,2638.2c-3,0-5.7-0.6-8.1-1.6c-2.4-1-4.4-2.5-6.2-4.3c-1.7-1.8-3.1-4-4-6.5
			c-0.9-2.5-1.4-5.2-1.4-8.3v-1.7c0-3.5,0.6-6.6,1.6-9.3c1-2.7,2.4-5,4.2-6.9c1.7-1.8,3.8-3.3,5.9-4.3c2.3-1,4.6-1.5,6.9-1.5
			c3.1,0,5.7,0.6,7.9,1.6c2.2,1,4,2.5,5.5,4.4c1.5,1.8,2.5,4.1,3.2,6.6c0.7,2.5,1,5.4,1,8.3v3.3h-28.9c0,1.9,0.3,3.9,0.9,5.6
			c0.6,1.7,1.5,3.2,2.5,4.4c1.1,1.3,2.4,2.3,4,3c1.6,0.7,3.3,1.1,5.2,1.1c2.6,0,4.8-0.6,6.6-1.6c1.8-1,3.3-2.4,4.7-4.2l4.4,3.5
			c-0.7,1-1.5,2.1-2.5,3.1c-1,1-2.2,1.8-3.4,2.6c-1.3,0.8-2.8,1.4-4.4,1.8C1835.8,2637.9,1833.9,2638.2,1831.8,2638.2z
			 M1830.9,2599.8c-1.5,0-2.8,0.2-4.1,0.8s-2.4,1.4-3.3,2.4c-1,1-1.8,2.3-2.4,3.9c-0.7,1.5-1.1,3.3-1.4,5.2h21.4v-0.6
			c-0.1-1.4-0.3-2.8-0.7-4.2c-0.3-1.4-1-2.6-1.8-3.8c-0.8-1.1-1.8-2.1-3.1-2.7C1834.3,2600.1,1832.7,2599.8,1830.9,2599.8z"/>
		<path fill="#969696" d="M1874,2632.1c1.3,0,2.5-0.2,3.8-0.7c1.1-0.5,2.3-1,3.2-1.7c0.9-0.7,1.6-1.6,2.2-2.6c0.6-1,0.9-2.2,1-3.3
			h6.9c-0.1,1.9-0.6,3.8-1.6,5.5c-0.9,1.7-2.2,3.2-3.6,4.6c-1.5,1.4-3.3,2.4-5.4,3.1c-2.1,0.8-4.1,1.1-6.4,1.1c-3.2,0-6-0.6-8.4-1.7
			c-2.4-1.1-4.3-2.7-5.9-4.7c-1.6-1.9-2.7-4.2-3.5-6.8c-0.8-2.6-1.1-5.4-1.1-8.2v-1.7c0-2.8,0.3-5.6,1.1-8.2
			c0.8-2.6,1.9-4.9,3.5-6.8c1.6-1.9,3.5-3.5,5.9-4.7c2.4-1.1,5.1-1.7,8.3-1.7c2.5,0,4.8,0.3,6.8,1.1c2.1,0.8,3.8,1.8,5.2,3.3
			c1.5,1.4,2.6,3.1,3.5,4.9c0.8,1.9,1.4,4,1.4,6.2h-6.9c-0.1-1.4-0.5-2.5-0.9-3.6c-0.6-1.1-1.3-2.2-2.1-3c-0.9-0.9-1.9-1.5-3.1-2.1
			s-2.5-0.8-4-0.8c-2.3,0-4.1,0.5-5.6,1.4s-2.7,2.1-3.6,3.5c-0.9,1.5-1.6,3.1-1.9,4.9c-0.3,1.8-0.6,3.6-0.6,5.5v1.7
			c0,1.9,0.2,3.8,0.6,5.6c0.3,1.8,1,3.4,1.9,4.9c0.9,1.5,2.1,2.6,3.6,3.5C1869.8,2631.7,1871.8,2632.1,1874,2632.1z"/>
		<path fill="#969696" d="M1925.6,2637.4c-0.2-0.6-0.5-1.1-0.7-2.1c-0.2-0.9-0.3-1.6-0.3-2.5c-0.7,0.7-1.5,1.4-2.3,2.1
			c-0.9,0.7-1.8,1.3-2.8,1.7s-2.2,0.9-3.3,1.1c-1.1,0.2-2.4,0.5-3.8,0.5c-2.2,0-4.2-0.3-5.9-1c-1.8-0.7-3.3-1.6-4.6-2.7
			c-1.3-1.1-2.2-2.5-2.8-4c-0.7-1.6-1-3.2-1-5c0-2.3,0.5-4.3,1.4-6c0.9-1.7,2.2-3.2,3.9-4.4c1.7-1.1,3.6-2.1,6-2.7
			c2.4-0.6,5-0.9,8-0.9h7.3v-3.3c0-2.5-0.8-4.6-2.3-6.2c-1.5-1.5-3.8-2.3-6.7-2.3c-1.4,0-2.6,0.2-3.8,0.6s-2.1,0.9-2.8,1.5
			c-0.8,0.6-1.5,1.4-1.8,2.2c-0.5,0.8-0.7,1.7-0.7,2.6h-7.3c0-1.5,0.5-3.1,1.3-4.6c0.8-1.5,1.9-2.8,3.4-4.1c1.5-1.3,3.3-2.2,5.4-3
			c2.1-0.8,4.4-1.1,7.1-1.1c2.3,0,4.4,0.3,6.4,0.9c1.9,0.6,3.6,1.5,5,2.7c1.4,1.3,2.5,2.7,3.3,4.4c0.8,1.8,1.1,3.9,1.1,6.3v19.8
			c0,1.5,0.1,3,0.3,4.6c0.2,1.6,0.6,3,1.1,4.1v0.7h-8V2637.4z M1913.5,2631.8c1.4,0,2.5-0.2,3.8-0.6c1.1-0.3,2.2-0.8,3.2-1.5
			c0.9-0.6,1.8-1.3,2.5-2.1c0.7-0.8,1.3-1.6,1.6-2.4v-8.8h-6c-4.2,0-7.4,0.7-9.7,1.9c-2.3,1.3-3.4,3.3-3.4,5.9c0,1,0.2,1.9,0.6,2.8
			c0.3,0.9,0.9,1.7,1.6,2.3c0.7,0.6,1.6,1.1,2.6,1.6C1911,2631.6,1912.1,2631.8,1913.5,2631.8z"/>
		<path fill="#969696" d="M1963.9,2637.4v-42.7h16.6c2.7,0,5.1,0.2,7.3,0.7c2.2,0.5,4,1.1,5.6,2.2c1.6,1,2.7,2.2,3.5,3.6
			c0.8,1.5,1.3,3.2,1.3,5.2c0,1.9-0.6,3.8-1.8,5.4c-1.3,1.6-3,2.8-5.2,3.6c1.4,0.3,2.6,0.8,3.6,1.5c1,0.7,1.9,1.4,2.7,2.3
			c0.8,0.9,1.3,1.8,1.7,2.8c0.3,1,0.6,2.2,0.6,3.3c0,2.1-0.3,3.8-1.1,5.4c-0.8,1.5-1.8,2.7-3.3,3.8c-1.4,1-3.2,1.7-5.1,2.3
			c-2.1,0.6-4.3,0.8-6.8,0.8h-19.5V2637.4z M1971.2,2612.8h9.5c6.8,0,10.3-2.1,10.3-6c0-4.1-3.4-6.2-10.4-6.2h-9.3L1971.2,2612.8
			L1971.2,2612.8z M1971.2,2618.6v12.9h12.1c3.1,0,5.4-0.6,6.8-1.7c1.5-1.1,2.3-2.7,2.3-4.8s-0.8-3.6-2.3-4.7
			c-1.5-1-3.8-1.7-6.8-1.7H1971.2z"/>
		<path fill="#969696" d="M2057.1,2594.6h7.3v42.7h-7.3v-31.2l-19.7,31.2h-7.3v-42.7h7.3v31.2L2057.1,2594.6z"/>
		<path fill="#969696" d="M2111.1,2637.4h-7.3v-18.2h-19.6v18.2h-7.3v-42.7h7.3v18.6h19.6v-18.6h7.3V2637.4z"/>
		<path fill="#969696" d="M2154.5,2600.6h-14.4v36.8h-7.3v-36.8h-14v-5.9h35.7V2600.6z"/>
		<path fill="#969696" d="M2176.3,2638.2c-3,0-5.7-0.6-8.1-1.6c-2.4-1-4.4-2.5-6.2-4.3c-1.7-1.8-3.1-4-4-6.5
			c-0.9-2.5-1.4-5.2-1.4-8.3v-1.7c0-3.5,0.6-6.6,1.6-9.3c1-2.7,2.4-5,4.2-6.9c1.7-1.8,3.8-3.3,5.9-4.3c2.3-1,4.6-1.5,6.9-1.5
			c3.1,0,5.7,0.6,7.9,1.6c2.2,1,4,2.5,5.5,4.4c1.5,1.8,2.5,4.1,3.2,6.6s1,5.4,1,8.3v3.3H2164c0,1.9,0.3,3.9,0.9,5.6
			c0.6,1.7,1.5,3.2,2.5,4.4c1,1.3,2.4,2.3,4,3c1.6,0.7,3.3,1.1,5.2,1.1c2.6,0,4.8-0.6,6.6-1.6c1.8-1,3.3-2.4,4.7-4.2l4.4,3.5
			c-0.7,1-1.5,2.1-2.5,3.1c-1,1-2.2,1.8-3.4,2.6c-1.3,0.8-2.8,1.4-4.4,1.8C2180.4,2637.7,2178.5,2638.2,2176.3,2638.2z
			 M2175.4,2599.8c-1.5,0-2.8,0.2-4.1,0.8s-2.4,1.4-3.3,2.4c-1,1-1.8,2.3-2.4,3.9c-0.7,1.5-1.1,3.3-1.4,5.2h21.4v-0.6
			c-0.1-1.4-0.3-2.8-0.7-4.2c-0.3-1.4-1-2.6-1.8-3.8c-0.8-1.1-1.8-2.1-3.1-2.7C2178.8,2600.1,2177.2,2599.8,2175.4,2599.8z"/>
		<path fill="#969696" d="M2237.5,2616.4c0,3.2-0.3,6-1.1,8.7c-0.7,2.6-1.8,4.9-3.2,6.8c-1.4,1.9-3.2,3.4-5.2,4.6
			c-2.1,1-4.4,1.6-7.1,1.6c-2.7,0-5-0.5-7.1-1.3c-2.1-0.8-3.8-2.1-5.2-3.6v20.6h-7.3v-59.1h6.7l0.3,4.8c1.5-1.8,3.2-3.2,5.2-4.1
			s4.4-1.4,7.2-1.4c2.7,0,5,0.6,7.2,1.6c2.2,1,3.8,2.5,5.2,4.4c1.5,1.9,2.5,4.2,3.2,6.8s1.1,5.7,1.1,8.9L2237.5,2616.4
			L2237.5,2616.4z M2230.2,2615.6c0-2.2-0.2-4.1-0.7-6s-1.1-3.5-2.1-5c-0.9-1.4-2.2-2.5-3.6-3.4c-1.5-0.8-3.2-1.3-5.1-1.3
			c-1.3,0-2.4,0.1-3.4,0.5c-1,0.3-1.9,0.7-2.7,1.3c-0.8,0.6-1.6,1.1-2.2,1.8c-0.7,0.7-1.1,1.5-1.7,2.4v20.4c0.5,0.8,1,1.6,1.7,2.4
			s1.4,1.4,2.2,1.8c0.8,0.6,1.7,0.9,2.7,1.3c1,0.3,2.2,0.5,3.4,0.5c1.9,0,3.6-0.5,5.1-1.3c1.5-0.8,2.6-1.9,3.5-3.4
			c0.9-1.5,1.6-3.1,2.1-5c0.5-1.9,0.7-4,0.7-6v-0.8H2230.2z"/>
		<path fill="#969696" d="M2281.7,2637.4h-7.3v-18.2h-19.6v18.2h-7.3v-42.7h7.3v18.6h19.6v-18.6h7.3V2637.4z"/>
		<path fill="#969696" d="M2311.2,2638.2c-3,0-5.7-0.6-8.1-1.6c-2.4-1-4.4-2.5-6.2-4.3c-1.7-1.8-3.1-4-4-6.5
			c-0.9-2.5-1.4-5.2-1.4-8.3v-1.7c0-3.5,0.6-6.6,1.6-9.3c1-2.7,2.4-5,4.2-6.9c1.7-1.8,3.8-3.3,5.9-4.3c2.3-1,4.6-1.5,6.9-1.5
			c3.1,0,5.7,0.6,7.9,1.6c2.2,1,4,2.5,5.5,4.4c1.5,1.8,2.5,4.1,3.2,6.6c0.7,2.5,1,5.4,1,8.3v3.3h-28.9c0,1.9,0.3,3.9,0.9,5.6
			c0.6,1.7,1.5,3.2,2.5,4.4c1.1,1.3,2.4,2.3,4,3c1.6,0.7,3.3,1.1,5.2,1.1c2.6,0,4.8-0.6,6.6-1.6c1.8-1,3.3-2.4,4.7-4.2l4.4,3.5
			c-0.7,1-1.5,2.1-2.5,3.1c-1,1-2.2,1.8-3.4,2.6c-1.3,0.8-2.8,1.4-4.4,1.8C2315.3,2637.7,2313.3,2638.2,2311.2,2638.2z
			 M2310.3,2599.8c-1.5,0-2.8,0.2-4.1,0.8c-1.3,0.6-2.4,1.4-3.3,2.4c-1,1-1.8,2.3-2.4,3.9c-0.7,1.5-1.1,3.3-1.4,5.2h21.4v-0.6
			c-0.1-1.4-0.3-2.8-0.7-4.2c-0.3-1.4-1-2.6-1.8-3.8c-0.8-1.1-1.8-2.1-3.1-2.7C2313.7,2600.1,2312.1,2599.8,2310.3,2599.8z"/>
		<path fill="#969696" d="M2367.6,2600.6h-14.4v36.8h-7.3v-36.8h-14v-5.9h35.7V2600.6z"/>
		<path fill="#969696" d="M2389.3,2638.2c-3,0-5.7-0.6-8.1-1.6c-2.4-1-4.4-2.5-6.2-4.3c-1.7-1.8-3.1-4-4-6.5
			c-0.9-2.5-1.4-5.2-1.4-8.3v-1.7c0-3.5,0.6-6.6,1.6-9.3c1-2.7,2.4-5,4.2-6.9c1.7-1.8,3.8-3.3,5.9-4.3c2.3-1,4.6-1.5,6.9-1.5
			c3.1,0,5.7,0.6,7.9,1.6c2.2,1,4,2.5,5.5,4.4c1.5,1.8,2.5,4.1,3.2,6.6c0.7,2.5,1,5.4,1,8.3v3.3H2377c0,1.9,0.3,3.9,0.9,5.6
			c0.6,1.7,1.5,3.2,2.5,4.4c1.1,1.3,2.4,2.3,4,3c1.6,0.7,3.3,1.1,5.2,1.1c2.6,0,4.8-0.6,6.6-1.6c1.8-1,3.3-2.4,4.7-4.2l4.4,3.5
			c-0.7,1-1.5,2.1-2.5,3.1c-1,1-2.2,1.8-3.4,2.6c-1.3,0.8-2.8,1.4-4.4,1.8C2393.4,2637.7,2391.4,2638.2,2389.3,2638.2z
			 M2388.4,2599.8c-1.5,0-2.8,0.2-4.1,0.8c-1.3,0.6-2.4,1.4-3.3,2.4c-1,1-1.8,2.3-2.4,3.9c-0.7,1.5-1.1,3.3-1.4,5.2h21.4v-0.6
			c-0.1-1.4-0.3-2.8-0.7-4.2c-0.3-1.4-1-2.6-1.8-3.8c-0.8-1.1-1.8-2.1-3.1-2.7C2391.8,2600.1,2390.2,2599.8,2388.4,2599.8z"/>
	</g>
	<rect x="1829.9" y="2349" fill="none" width="676.5" height="213.5"/>
	<g enable-background="new    ">
		<path fill="#028CB7" d="M1992,2433.8v85.2h-11.6v-33.3h-0.5c-8.2,19.7-27.9,38.1-61.9,38.1c-46.8,0-75.4-35.4-75.4-90.2
			c0-54.6,24.7-90.6,80.8-90.6c49,0,63.3,32,65.5,53.2h-12.2c-2.4-22.1-18.7-43-53.4-43c-57.3,0-68.7,45.3-68.7,79.6
			c0,24.7,8.2,80.8,64.6,80.8c50.9,0,61.4-45.3,61.4-69.6h-58.2v-10.1h69.6V2433.8z"/>
		<path fill="#028CB7" d="M2109.2,2519v-18.2h-0.5c-7.7,14.1-23.2,23-42,23c-36.7,0-39.5-28.4-39.5-43.2v-85h10.7v78.4
			c0,15.3,0,41.2,29.4,41.2c19.9,0,42-12.6,42-48.3v-71.3h10.7v123.3h-10.8V2519z"/>
		<path fill="#028CB7" d="M2216.2,2404.2c-1.7,0-3.6,0-5.4,0c-15.7,0.5-42,5.8-42,55.8v59h-10.7v-123.3h10.7v25.5h0.5
			c5.8-15.3,21.1-27.9,41.2-27.9h5.6v10.8H2216.2z"/>
		<path fill="#028CB7" d="M2317.4,2519v-18.2h-0.5c-7.7,14.1-23.2,23-42,23c-36.7,0-39.5-28.4-39.5-43.2v-85h10.7v78.4
			c0,15.3,0,41.2,29.4,41.2c19.9,0,42-12.6,42-48.3v-71.3h10.7v123.3h-10.8V2519z"/>
	</g>
	<g>
		
			<linearGradient id="SVGID_1_" gradientUnits="userSpaceOnUse" x1="29.9247" y1="496.2229" x2="88.9123" y2="496.2229" gradientTransform="matrix(8.9887 0 0 -8.9887 -32.8831 6950.9502)">
			<stop  offset="0" style="stop-color:#0485BB"/>
			<stop  offset="1" style="stop-color:#32B1E4"/>
		</linearGradient>
		<path fill="url(#SVGID_1_)" d="M236.1,2344.6v292l260.2,143.8l4.4,2.6l4.4-2.6l261.1-143.8v-292l-265.6-146.4L236.1,2344.6z
			 M649,2573.9l-148.2,82.9l-148.2-83.7v-165.9l148.2-83.7l148.2,83.7V2573.9z"/>
		<text transform="matrix(1 0 0 1 413.9282 2549.4587)" fill="#474747" font-family="'Roboto-Medium'" font-size="152.8022">R</text>
		<text transform="matrix(1 0 0 1 483.9145 2549.3201)" fill="#018CB7" font-family="'Roboto-Medium'" font-size="152.8022">G</text>
		<path fill="none" stroke="#FFFFFF" stroke-miterlimit="10" d="M915.3,2212.3"/>
		<g>
			<path fill="none" stroke="#FFFFFF" stroke-miterlimit="10" d="M498.9,2723"/>
			<path fill="none" stroke="#FFFFFF" stroke-miterlimit="10" d="M768,2575.7"/>
			<path fill="none" stroke="#FFFFFF" stroke-miterlimit="10" d="M501.7,2719.5"/>
		</g>
		<g>
			<path fill="none" stroke="#FFFFFF" stroke-miterlimit="10" d="M285.5,2370.2"/>
			<path fill="none" stroke="#FFFFFF" stroke-miterlimit="10" d="M285.5,2677.1"/>
		</g>
		<circle fill="#FFFFFF" cx="568.7" cy="2689.5" r="17.7"/>
		<circle fill="#FFFFFF" cx="284.6" cy="2490.2" r="17.7"/>
		<path fill="none" stroke="#FFFFFF" stroke-miterlimit="10" d="M669.3,2910"/>
		<polygon fill="#FAFDFD" points="290,2370.2 281.1,2370.2 281.1,2661.3 290,2666.5 		"/>
		<polygon fill="#FFFFFF" points="290,2370.2 285.5,2377.3 236.1,2349.9 236.1,2344.6 239.6,2342 		"/>
		<polygon fill="#FAFDFD" points="497.2,2257.3 501.7,2249.3 766.2,2394 766.2,2404.6 		"/>
		<polygon fill="#FFFFFF" points="497.2,2257.3 506,2257.3 506,2200.9 500.8,2198.2 497.2,2200 		"/>
		<circle fill="#FFFFFF" cx="611.8" cy="2316.4" r="17.7"/>
		<polygon fill="#FAFDFD" points="497.2,2723 501.7,2730.9 766.2,2586.3 766.2,2575.7 		"/>
		<polygon fill="#FFFFFF" points="497.2,2723 506,2723 506,2779.4 500.8,2782.1 497.2,2780.3 		"/>
	</g>
</g>
</svg>
